<svg width="25" height="25" viewBox="0 0 25 25" fill="none" xmlns="http://www.w3.org/2000/svg">
<path d="M24.1117 17.6719C22.6758 16.7297 20.4328 15.4945 20.4328 14.107C20.4328 12.7195 22.6758 11.4273 24.1117 10.4851C22.4578 10.5062 20.2898 9.94999 19.6914 8.74608C19.0898 7.53592 20.1797 5.90233 21.032 4.24061C19.6063 5.22343 18.2203 6.50546 17.182 5.80936C16.1438 5.11327 15.6492 2.57968 15.6711 0.647644C14.8586 2.33593 13.7938 3.58514 12.5914 3.58514C11.3938 3.58514 10.2945 2.35233 9.48282 0.67655C9.50078 2.59843 9.00782 5.11405 7.97188 5.80936C6.93594 6.50468 5.54766 5.22343 4.12188 4.24061C4.97422 5.90311 6.17735 7.53592 5.57657 8.74608C4.98047 9.94608 2.68828 10.5015 1.04219 10.4851C2.475 11.4273 4.89219 12.7211 4.89219 14.107C4.89219 15.493 2.475 16.7297 1.04219 17.6719C2.6875 17.6555 4.97969 18.2398 5.57657 19.4398C6.17344 20.6414 5.13594 22.1891 3.92891 23.618C6.11797 22.8656 7.10938 23.3375 8.09688 24.1453H9.64688C7.56016 22.4164 6.12891 18.8805 6.12891 14.7922C6.12891 8.99999 9.00547 4.29843 12.5453 4.29843C16.0844 4.29843 18.9617 9.00077 18.9617 14.7922C18.9617 18.8805 17.5305 22.4164 15.4438 24.1453H16.7758C17.7445 23.4312 18.7195 22.8922 21.1555 23.6914C19.8742 22.2141 19.0953 20.6414 19.6922 19.4398C20.2906 18.2351 22.4578 17.6508 24.1117 17.6719ZM14.2281 10.189C14.6859 9.61405 14.9813 8.81561 14.9813 7.93124C14.9813 6.18436 13.8688 4.77343 12.5023 4.77343C12.4172 4.77343 12.3289 4.76249 12.2453 4.77343C10.9977 4.93593 10.0234 6.29296 10.0234 7.93124C10.0234 8.83827 10.3344 9.64843 10.8133 10.2258C8.21875 10.7141 8.02266 15.0867 8.02266 18.1562H9.82188L10.2992 24.5633H14.8711L15.2938 18.1562H17.0016C17.0016 15.0781 17.0625 10.6289 14.2281 10.189Z" fill="#909090"/>
</svg>

