<svg width="25" height="25" viewBox="0 0 25 25" fill="none" xmlns="http://www.w3.org/2000/svg">
<path d="M21.5713 9.07142C20.8088 2.83658 17.5099 0 12.4999 0C7.48989 0 4.19101 2.83658 3.42849 9.07142C2.9599 12.903 1.6059 19.1866 1.05421 21.6726C0.92055 22.2749 1.26305 22.8819 1.84834 23.0771L7.42788 24.938C7.7827 25.0563 8.17231 25.0033 8.48252 24.7944C8.79273 24.5856 8.98857 24.2446 9.01251 23.8714L9.49944 16.273C9.53088 15.7823 9.26123 15.3217 8.81797 15.109L5.18571 13.3658C4.71342 13.1391 4.51431 12.5725 4.74098 12.1002L5.59703 10.3165C5.70588 10.0897 5.90035 9.91541 6.1377 9.83205C6.37505 9.74868 6.63574 9.76298 6.86258 9.87183L10.5241 11.6291C10.9421 11.8298 11.2081 12.2524 11.2081 12.7161V17.3205C11.2081 17.4998 11.307 17.6645 11.4652 17.7488L12.2714 18.1788C12.4142 18.255 12.5856 18.255 12.7284 18.1788L13.5347 17.7488C13.6929 17.6644 13.7917 17.4998 13.7917 17.3205V12.7161C13.7917 12.2524 14.0577 11.8298 14.4757 11.6291L18.1373 9.87183C18.3641 9.76298 18.6249 9.74868 18.8622 9.83205C19.0996 9.91541 19.294 10.0897 19.4029 10.3165L20.2589 12.1002C20.4856 12.5725 20.2865 13.1391 19.8142 13.3658L16.1819 15.109C15.7387 15.3217 15.4689 15.7823 15.5005 16.273L15.9874 23.8714C16.0113 24.2446 16.2071 24.5856 16.5174 24.7944C16.8277 25.0033 17.2173 25.0562 17.572 24.938L23.1516 23.0771C23.7381 22.8815 24.0796 22.2762 23.9457 21.6726C23.3939 19.1865 22.0399 12.903 21.5713 9.07142Z" fill="#909090"/>
</svg>

