<svg width="66" height="67" viewBox="0 0 66 67" fill="none" xmlns="http://www.w3.org/2000/svg">
<circle cx="33" cy="33.8265" r="32.5" fill="url(#paint0_linear_165_99)"/>
<path fill-rule="evenodd" clip-rule="evenodd" d="M43.5997 15.0057C43.5424 15.6168 44.7096 16.628 45.0953 16.5964C45.481 16.5647 45.8562 15.1896 45.8457 15.1686C45.8353 15.1475 45.2099 14.726 44.4543 14.7945C43.6986 14.863 43.5997 15.0057 43.5997 15.0057ZM45.7841 18.2666C45.7738 17.3214 45.6738 16.8097 45.864 16.3514C46.0541 15.893 46.2646 15.6316 46.4053 15.6737C46.546 15.7159 47.6183 16.5835 47.1307 17.5268C46.4403 18.8624 45.7945 19.2117 45.7841 18.2666ZM48.3341 16.794C48.8185 16.5486 49.3803 15.5987 49.0877 15.5741C48.7466 15.5455 47.5637 15.6196 47.3768 15.9927C47.1416 16.4622 47.8497 17.0395 48.3341 16.794ZM46.8957 18.9858C47.4045 18.9725 46.9621 19.5885 46.9119 19.7571C46.8312 20.0284 46.6652 20.207 46.4997 20.1132C46.1768 19.9303 46.5314 18.9953 46.8957 18.9858ZM23.6046 15.2918C24.9731 14.7417 26.6432 13.828 29.6677 13.571C31.547 13.4112 33.9389 13.4379 37.1167 14.1882C40.1263 14.8988 44.4541 18.3419 44.4949 18.1817C44.5177 18.0922 44.6875 17.8123 44.6089 17.5916C44.3414 16.8403 43.4027 15.6588 43.0644 15.3656C42.6266 14.9863 40.5211 15.2391 39.9792 13.6375C39.4372 12.0359 42.0051 11.2341 42.4012 11.0023C42.7973 10.7705 44.9249 5.47121 50.7617 9.41209C50.9497 9.53898 51.6171 10.2975 51.8463 10.437C53.1009 11.2012 55.5076 12.2022 56.6996 12.8734C57.2006 13.1555 58.4479 14.757 57.9275 15.7871C57.5746 16.4858 56.8497 17.2836 55.7776 17.6437C55.2691 17.8146 53.9961 17.5048 53.7613 17.9603C53.3916 18.6773 53.0346 19.6313 52.4162 19.8987C51.8032 20.1638 51.0561 19.9809 50.0269 20.2338C49.6546 20.3253 49.4182 20.7862 49.1224 21.0998C48.6229 21.6294 48.1664 22.09 48.1457 22.1991C48.1231 22.3178 50.3387 25.384 51.329 28.9887C51.7411 30.4889 51.0817 38.6114 48.716 33.7773C48.0416 31.8551 46.7028 24.143 44.2493 24.32C41.6227 24.5097 40.7176 26.4046 40.2545 26.6889C40.1002 26.7837 39.3783 27.7346 39.2428 26.5967C39.122 25.5819 39.1311 24.1958 38.6469 23.417C38.2913 22.8451 37.4966 22.8433 37.0639 22.3283C36.194 21.2933 35.3562 20.2549 33.948 19.6527C30.498 18.1775 28.8407 19.8213 28.2154 20.1164C27.59 20.4114 26.0891 21.8866 25.6722 23.7412C25.2552 25.5957 26.5894 26.6494 26.4226 27.113C26.2559 27.5767 26.7561 29.1784 26.0057 29.6841C25.2552 30.1899 25.422 29.7684 24.6716 28.4618C23.9211 27.1552 22.4619 26.6494 21.6698 25.5957C20.8776 24.542 22.0867 21.0436 22.17 20.7275C22.2534 20.4114 23.7543 17.0395 22.8579 18.2618C21.9616 19.4841 21.1903 20.8961 20.5441 23.0035C19.8978 25.111 22.0554 27.092 20.5545 29.1151C19.0535 31.1383 11.6573 28.756 11.6573 28.756C11.6573 28.756 11.2817 27.855 10.8456 26.8249C10.6351 26.3277 10.4985 25.7114 10.216 25.3209C9.33095 24.0973 8.14787 23.7901 7.82161 23.5401C7.17543 23.0449 7.24058 22.5008 7.08424 22.4481C6.92787 22.3954 6.52919 22.4864 6.52919 22.4864C6.52919 22.4864 5.8872 22.2085 5.11638 22.0471C4.72908 21.966 4.4318 21.9175 4.19864 21.6627C4.08325 21.5365 3.84187 21.4472 3.89218 21.106C4.0025 20.358 4.34647 20.3057 4.62296 20.1442C5.23453 19.7867 5.93251 20.1151 5.98719 19.6624C6.08082 18.8873 7.13434 18.305 7.13434 18.305L7.39492 17.4433C7.61321 16.7214 9.91912 16.288 10.74 16.6939C11.5608 17.0998 12.0213 17.5089 12.4534 18.7225C12.4534 18.7225 14.5322 19.2067 14.4819 19.536C14.3888 20.1451 14.5174 21.2288 14.6599 21.2876C14.6599 21.2876 15.4113 20.6575 15.3105 20.2473C14.8171 18.2384 16.9692 16.0139 17.2701 15.8322C17.3867 15.7617 17.1012 15.1026 17.083 14.3623C17.0541 13.1925 17.2399 11.8356 17.2909 12.397C17.3743 13.3137 17.9788 14.9997 17.9684 14.8628C17.958 14.7258 18.2394 14.1462 18.2603 14.1462C18.2811 14.1462 18.506 14.6778 18.6728 14.878C18.8396 15.0782 18.7767 13.9546 18.7198 13.6296C18.6628 13.3047 19.0107 9.84702 19.2609 10.0894C19.511 10.3318 20.8202 14.7101 21.1218 15.0019C21.4233 15.2937 21.8874 16.3907 21.6269 15.4528C21.3663 14.515 22.1216 13.1105 22.1272 13.1768C22.3493 15.8418 23.2967 12.4571 23.6046 15.2918ZM47.844 20.2873C47.8544 18.6014 47.8752 18.2115 48.3755 17.632C48.8758 17.0524 49.4387 16.2621 49.6159 16.2411C49.7931 16.22 49.8243 16.2306 50.0328 16.652C50.2413 17.0735 50.7833 17.4423 50.7207 17.7057C50.6582 17.9692 47.844 20.2873 47.844 20.2873ZM49.8035 19.3496C49.7722 19.8764 51.3878 18.7279 51.5233 18.3485C51.6588 17.9692 51.1897 17.9586 51.1897 17.9586L49.8035 19.3496ZM50.8771 19.5287C50.9259 19.5698 51.0959 19.5656 51.393 19.5023C51.6901 19.4391 52.8887 18.8543 53.0503 18.5065C53.2118 18.1588 53.3447 18.0166 53.1884 17.9744C52.9127 17.9001 52.5716 17.9124 52.3018 18.0391C51.5065 18.4125 50.8282 19.4875 50.8771 19.5287ZM8.06234 22.0218C8.39071 22.0336 9.1813 22.6158 9.17089 23.2692C9.16047 23.9225 8.44357 23.4824 8.04688 23.2566C7.7081 23.0638 7.22239 22.481 7.40918 22.1893C7.49145 22.0608 7.73397 22.01 8.06234 22.0218ZM10.1836 24.2734C10.4784 24.5705 10.4603 24.2577 10.4958 24.1815C10.5437 24.0514 10.5635 24.0117 10.5887 23.8552C10.6277 23.6126 10.7152 22.8825 10.7256 22.7982C10.736 22.7139 10.3639 21.6711 10.2462 21.7656C9.92026 22.0272 9.50521 22.2764 9.2419 22.2996C9.17614 22.702 9.31104 23.3941 10.1836 24.2734ZM10.4937 21.0991C10.4937 21.0991 10.8794 22.2055 10.9315 22.4268C10.9836 22.6481 11.1608 22.5428 11.4527 22.1739C11.7445 21.8051 12.1927 21.2045 12.0155 21.0254C11.8383 20.8463 11.0045 20.762 10.8169 20.8673C10.6292 20.9727 10.4937 21.0991 10.4937 21.0991ZM12.4036 21.1273C12.4036 21.1273 13.7405 20.7673 13.9021 20.7989C14.0636 20.8305 13.7301 21.5997 13.4643 22.1424C13.3528 22.37 13.2396 22.8328 13.0528 23.1603C12.7943 23.6134 12.4521 23.9524 12.2918 24.3499C12.0156 25.0348 12.2143 26.3134 12.0729 27.1159C12.0506 27.2421 12.0598 27.5848 11.9087 27.6296C11.7576 27.6744 11.5048 26.8894 11.3276 26.4732C11.1504 26.0569 10.8534 24.5027 11.0202 23.7967C11.1869 23.0907 11.5674 22.4796 11.8801 22.2477C12.1927 22.0159 12.4036 21.1273 12.4036 21.1273Z" fill="url(#paint1_linear_165_99)"/>
<path fill-rule="evenodd" clip-rule="evenodd" d="M22.4888 28.5531L23.4477 28.3423C23.4477 28.3423 23.7604 35.5287 23.4894 36.9828C23.2183 38.437 22.3845 38.2473 21.8425 38.9849C20.8932 40.2769 21.1976 40.2438 22.1761 41.3769C22.7493 42.0407 22.6555 41.851 22.7389 42.4727C22.9144 43.7812 22.5022 44.0245 22.0301 45.5391C21.7165 46.5454 21.2796 47.5201 21.5402 47.6465C21.8008 47.7729 24.417 47.4674 25.1675 47.2566C25.9179 47.0459 28.5925 46.9373 28.9823 46.3715C29.2497 45.9833 29.1985 45.8773 29.1463 45.2558C29.0343 43.9219 29.0036 43.1349 28.718 41.7737C28.3808 40.1665 27.9302 38.5465 27.8566 38.3C27.7952 38.0947 27.3774 36.859 27.1544 35.4891C26.975 34.3873 26.9694 33.1873 27.0123 32.4519C27.0334 32.09 26.73 31.9875 26.5527 31.8294C26.2818 31.5879 26.0439 31.7855 25.565 30.7127C25.5226 30.6176 25.5022 29.9845 25.4604 29.8689C25.1583 29.0334 24.9136 28.7438 24.5451 28.2008C23.7987 27.1008 22.9055 26.7305 22.2462 26.2012C22.0818 26.0692 21.9631 25.9325 21.8192 25.7797C21.6753 25.6269 21.5061 25.4578 21.4805 25.1809C21.4164 24.4872 21.4671 23.7441 21.5669 23.009C21.6585 22.334 22.2434 21.3697 22.4158 21.0295C22.6346 20.5976 22.6106 19.6625 22.7739 19.1988C22.9373 18.735 23.234 17.6998 23.234 17.6998C23.135 17.7539 22.8222 18.2583 22.5304 18.7008C22.0679 19.4023 21.4501 20.283 21.0666 21.2473C20.6949 22.1818 20.1851 23.2829 20.2553 24.1366C20.3313 25.0599 20.565 25.8605 20.7273 26.7302C20.8792 27.5447 21.0465 28.312 20.5545 29.1151C20.1529 29.7708 21.0077 30.4652 20.9461 30.6763C20.8263 31.0873 19.315 32.9314 19.2524 34.0799C19.1899 35.2285 18.8876 35.7343 19.513 37.2516C20.1384 38.769 20.0133 38.4318 20.3364 38.8744C20.6595 39.3169 20.993 38.6425 21.2745 38.358C21.5559 38.0735 21.5247 37.1146 21.5559 36.6721C21.5872 36.2295 21.6497 35.0282 21.8998 34.2696C22.2934 33.076 22.3814 31.2843 22.4314 30.0125C22.4888 28.5531 22.4888 28.5531 22.4888 28.5531Z" fill="url(#paint2_linear_165_99)"/>
<path fill-rule="evenodd" clip-rule="evenodd" d="M24.9635 29.4151C25.1068 29.9989 25.022 30.5197 25.1639 30.8791C25.812 32.5199 26.6359 32.0505 26.8144 32.2599C26.9002 32.5143 26.5872 34.7693 27.4076 37.7322C27.9063 39.5332 28.5108 41.1378 28.7981 42.8489C28.9419 43.7049 28.6174 46.6185 28.6174 46.6185C28.6461 46.6522 30.4908 46.0357 31.6105 44.6735C31.884 44.3408 31.4552 42.9458 31.4752 41.3414C31.4957 39.6927 31.9284 37.8223 32.2261 37.3449C32.7329 36.5323 33.0932 35.6699 33.6868 34.9516C33.7905 34.8263 34.8062 33.9532 34.926 33.8376C36.2551 32.5563 36.635 32.9127 37.6569 32.562C38.9059 32.1333 45.7021 31.1707 47.8847 29.7744C47.9526 29.7311 47.6661 28.6063 47.2007 27.4903C46.9248 26.8285 46.5148 26.0791 46.3294 25.5195C45.9437 24.3547 44.4721 24.0525 44.145 23.9829C43.6464 23.9694 42.6517 24.1756 41.9158 24.7399C41.5714 25.004 41.2785 25.2767 40.9719 25.6415C40.5553 26.1372 40.1915 26.8687 39.6415 27.1425C39.1911 27.3667 37.8448 28.3391 36.3953 29.888C35.7406 30.5875 35.4815 31.5933 35.0077 32.2725C34.7954 32.5767 33.7212 33.7191 33.6909 33.2349C33.6725 32.9402 33.677 32.3495 33.4701 32.0169C33.1498 31.5019 32.5698 31.3259 32.5293 31.6587C32.4796 32.0657 32.447 32.3996 32.4244 32.6747C32.3662 33.3837 32.3011 34.0295 32.0875 34.1957C32.045 34.2287 31.6138 33.7103 30.8742 33.2895C30.1855 32.8977 29.5206 31.4277 29.3144 30.9043C29.2756 30.9235 28.4797 31.8583 28.3499 31.767C28.3053 31.036 26.9692 27.4369 26.4226 27.113C26.2521 29.4571 26.0673 29.9341 24.9635 29.4151Z" fill="url(#paint3_linear_165_99)"/>
<path fill-rule="evenodd" clip-rule="evenodd" d="M28.7412 46.4643C28.7412 46.4643 30.8258 45.2842 31.2427 44.3991C31.6597 43.514 30.7007 42.123 31.4512 39.3834C32.2017 36.6437 32.0766 36.8123 33.0355 35.2107C33.9944 33.609 36.7044 32.3234 36.8294 32.2602C36.9545 32.197 38.7264 31.9231 40.0189 31.8387C41.3113 31.7545 43.938 30.1317 45.689 30.0053C47.4401 29.8788 51.0254 29.2255 51.213 30.0474C51.4007 30.8693 51.2933 34.674 51.2933 34.674C51.2933 34.674 49.1077 34.0292 48.3572 34.1556C47.6068 34.282 45.6264 36.0747 44.3756 36.3275C43.1248 36.5804 43.0067 36.5426 41.881 37.0063C40.7554 37.4699 40.7067 45.3895 39.2058 46.106C37.7049 46.8226 35.5697 45.796 33.3184 46.1753C31.067 46.5546 31.4303 47.3284 29.6793 47.8763C27.9282 48.4242 28.7412 46.4643 28.7412 46.4643Z" fill="url(#paint4_linear_165_99)"/>
<path fill-rule="evenodd" clip-rule="evenodd" d="M28.6554 46.2556C28.6554 46.2556 28.8552 46.9376 29.0219 47.1062C29.1887 47.2748 30.1893 47.1589 30.7939 46.769C31.3984 46.3791 31.9508 45.768 32.3469 45.6204C32.7429 45.4729 34.4523 45.1146 35.4008 45.5045C36.3493 45.8944 39.3615 46.2105 40.0702 43.218C40.3485 42.0427 39.9355 39.0913 41.0382 37.5133C41.9461 36.214 43.8991 36.1121 45.4589 35.415C46.8285 34.8028 47.9154 32.3469 51.5563 33.9874C52.3203 34.3316 54.981 35.0589 54.6307 36.1999C54.2555 37.4222 55.2978 41.0048 55.673 41.6371C56.0482 42.2693 56.7153 43.1966 55.1727 46.5263C53.6301 49.8561 54.0887 50.4883 51.6289 53.6495C49.1691 56.8106 49.2525 58.6652 48.2102 58.9181C47.1679 59.171 47.0845 57.3586 46.5008 57.3586C45.9171 57.3586 42.415 58.1172 42.4567 59.8032C42.4984 61.4892 42.6027 61.0255 38.6003 60.7305C36.5403 60.5786 22.3821 60.8991 21.048 59.5503C20.1724 58.6652 21.3815 58.7073 19.3386 58.2437C16.1628 57.523 19.0652 57.3301 17.1915 59.6978C16.9413 60.0139 16.0241 57.0424 15.8156 56.8317C15.6072 56.621 13.2725 56.7474 12.9806 56.8949C12.6888 57.0424 13.2099 57.6114 13.0015 57.9487C11.6433 60.1457 10.9759 53.9817 11.339 52.8803C11.4224 52.6274 10.1403 50.7834 10.0466 50.5305C9.95276 50.2776 7.54504 46.4842 8.12872 45.7256C8.7124 44.9669 8.33718 46.4421 9.00425 45.3041C9.67132 44.1661 9.42117 42.8173 9.67132 42.3958C9.92149 41.9743 9.75471 42.0586 10.2967 41.89C10.8387 41.7214 10.5468 41.7214 10.7553 42.5644C10.9637 43.4074 11.2765 43.7235 11.5058 43.5549C11.7351 43.3863 11.4641 41.7846 11.6308 41.4264C11.7976 41.0681 11.7976 40.8573 12.965 41.616C14.1323 42.3747 11.0993 37.338 11.3285 36.5161C11.5578 35.6942 10.4322 35.357 10.9324 34.1768C11.4328 32.9966 10.5156 28.6552 11.683 27.9809C12.8504 27.3065 11.3494 27.3065 14.9766 27.4329C18.6038 27.5594 19.8546 27.0114 20.605 27.6436C21.3555 28.2759 21.6473 27.7701 21.2304 29.4561C20.8135 31.142 21.7307 31.0998 20.8969 32.1536C20.063 33.2073 19.8129 33.3759 19.8129 34.7668C19.8129 36.1577 19.4376 36.537 19.8546 37.2536C20.2715 37.9701 21.306 37.98 21.306 37.98C21.306 37.98 22.1847 27.9708 22.7684 27.7179C23.3521 27.465 23.6856 28.7294 23.6022 30.8369C23.5188 32.9443 25.0197 37.1592 22.2472 38.9505C21.1154 39.6817 21.5574 40.1005 21.6927 40.3201C21.8888 40.6386 22.2443 40.7015 22.9351 42.0483C24.1024 44.3243 22.8517 42.0483 22.6015 45.083C22.3514 48.1177 20.4737 47.6881 23.0169 47.1824C25.5601 46.6766 23.6021 47.0851 25.3532 46.7479C27.1042 46.4107 27.7381 46.9511 28.6554 46.2556Z" fill="url(#paint5_linear_165_99)"/>
<path fill-rule="evenodd" clip-rule="evenodd" d="M44.7775 26.885C44.6705 25.5128 45.0254 24.7538 45.4457 24.4688C45.8541 24.1918 46.4864 25.7214 46.8415 26.6998C46.9738 27.0646 47.5538 28.4491 47.6393 28.6912C47.9211 29.4892 47.8733 29.563 47.8848 29.7744C47.796 29.838 45.8873 29.9376 44.6084 30.2194C44.1 30.3315 42.7609 31.0062 42.5586 30.9893C42.5433 30.965 42.8257 29.4278 43.2408 29.1384C43.7734 28.7672 45.3442 28.7075 45.4213 28.6969C45.4984 28.5509 44.8206 27.4389 44.7775 26.885Z" fill="url(#paint6_linear_165_99)"/>
<path fill-rule="evenodd" clip-rule="evenodd" d="M43.4139 36.2286L45.1074 37.9364C45.1074 37.9364 45.6494 37.262 47.734 37.0513C49.8186 36.8405 49.7768 36.8827 51.6947 36.7984C53.6125 36.7141 54.4718 37.075 54.5613 36.5971C54.6025 36.377 54.9509 35.7865 54.1659 35.2009C53.247 34.5155 51.1389 33.8295 50.6502 33.6447C49.744 33.3021 48.6257 33.4995 47.4473 33.9769C46.0791 35.0961 45.6192 35.1288 44.7051 35.7048L43.4139 36.2286Z" fill="url(#paint7_linear_165_99)"/>
<path fill-rule="evenodd" clip-rule="evenodd" d="M42.8862 43.5813C43.5181 42.3384 44.6449 41.5781 45.8657 41.4766C47.2147 41.3645 48.6832 42.0057 49.8279 42.5487C50.1683 42.7102 49.6529 43.0671 49.5849 43.3247C49.5257 43.5482 49.0891 44.0411 49.0891 44.0411C49.0891 44.0411 48.3478 44.066 47.4306 44.2135C46.8593 44.3054 45.4233 44.7993 44.4237 45.256C43.8184 45.5324 43.5314 46.0222 43.2406 45.7519C42.4693 45.0355 42.8862 43.5813 42.8862 43.5813Z" fill="url(#paint8_linear_165_99)"/>
<path fill-rule="evenodd" clip-rule="evenodd" d="M51.7198 38.2288C50.8025 39.8305 51.0527 40.547 51.3445 41.3478C51.6364 42.1487 52.1366 41.1371 52.0533 40.7156C51.9699 40.2941 51.7198 38.2288 51.7198 38.2288Z" fill="url(#paint9_linear_165_99)"/>
<path fill-rule="evenodd" clip-rule="evenodd" d="M51.4399 44.8582C50.9882 45.2217 51.0786 45.7696 51.7057 46.2227C52.1243 45.9962 52.2042 45.3956 51.9975 44.9794C51.8586 44.8107 51.532 44.7949 51.4399 44.8582Z" fill="url(#paint10_linear_165_99)"/>
<path fill-rule="evenodd" clip-rule="evenodd" d="M47.573 46.0225C48.3652 46.3492 48.9749 46.3439 49.3084 46.1648C49.642 45.9856 49.6521 45.8231 49.5167 45.6018C49.3811 45.3805 48.657 45.3113 48.3235 45.4166C47.9899 45.522 47.573 46.0225 47.573 46.0225Z" fill="url(#paint11_linear_165_99)"/>
<path fill-rule="evenodd" clip-rule="evenodd" d="M28.35 31.767C27.5559 28.7897 24.9066 25.7914 25.5509 23.2567C27.5131 17.4619 32.1047 18.2159 35.3575 20.294C36.3212 20.9097 36.4068 21.8146 37.222 22.4837C37.7405 22.7854 38.2845 22.6793 38.6469 23.417C38.9581 24.0503 39.161 24.2669 39.2428 26.5967C39.2358 26.8638 39.7385 26.8429 39.7314 27.11C37.9304 28.4066 36.2077 29.6351 35.2822 31.8096C35.0642 32.2572 34.8096 32.6732 34.3883 33.0259C34.1541 33.1219 33.675 33.592 33.691 33.2349C33.7136 32.5049 33.5689 31.7604 32.7215 31.4892C32.4393 31.5165 32.4693 32.1659 32.4363 32.5352C32.4011 32.9299 32.4417 33.8347 32.0875 34.1957C31.7156 33.8897 31.2724 33.498 30.751 33.2081C30.0611 32.6076 29.7238 31.8832 29.3987 31.109L29.3145 30.9043C28.993 31.1919 28.7549 31.6322 28.35 31.767Z" fill="url(#paint12_linear_165_99)"/>
<defs>
<linearGradient id="paint0_linear_165_99" x1="41.125" y1="3.97959" x2="20.567" y2="63.6073" gradientUnits="userSpaceOnUse">
<stop stop-color="#DC7882"/>
<stop offset="1" stop-color="#8F9EBE"/>
</linearGradient>
<linearGradient id="paint1_linear_165_99" x1="20.7393" y1="28.0746" x2="25.4153" y2="16.3304" gradientUnits="userSpaceOnUse">
<stop stop-color="#2E2340"/>
<stop offset="0.502109" stop-color="#49253C"/>
<stop offset="1" stop-color="#6C2E47"/>
</linearGradient>
<linearGradient id="paint2_linear_165_99" x1="19.5246" y1="42.5708" x2="27.2943" y2="31.7364" gradientUnits="userSpaceOnUse">
<stop stop-color="#271B33"/>
<stop offset="0.645833" stop-color="#77313C"/>
<stop offset="1" stop-color="#C74746"/>
</linearGradient>
<linearGradient id="paint3_linear_165_99" x1="29.5041" y1="37.1808" x2="48.4459" y2="34.3444" gradientUnits="userSpaceOnUse">
<stop stop-color="#425A72"/>
<stop offset="0.188235" stop-color="#383B54"/>
<stop offset="1" stop-color="#2E1C36"/>
</linearGradient>
<linearGradient id="paint4_linear_165_99" x1="31.2377" y1="42.3598" x2="52.6037" y2="31.0053" gradientUnits="userSpaceOnUse">
<stop stop-color="#34445D"/>
<stop offset="1" stop-color="#2A1A34"/>
</linearGradient>
<linearGradient id="paint5_linear_165_99" x1="9.94211" y1="61.9137" x2="60.3679" y2="42.3094" gradientUnits="userSpaceOnUse">
<stop stop-color="#232645"/>
<stop offset="1" stop-color="#451B33"/>
</linearGradient>
<linearGradient id="paint6_linear_165_99" x1="43.2211" y1="27.9269" x2="49.1404" y2="29.2813" gradientUnits="userSpaceOnUse">
<stop stop-color="#322942"/>
<stop offset="0.301961" stop-color="#7C3844"/>
<stop offset="1" stop-color="#C74746"/>
</linearGradient>
<linearGradient id="paint7_linear_165_99" x1="44.6751" y1="38.229" x2="53.8035" y2="34.1188" gradientUnits="userSpaceOnUse">
<stop stop-color="#3C1E38"/>
<stop offset="0.622901" stop-color="#8D363F"/>
<stop offset="1" stop-color="#E0514D"/>
</linearGradient>
<linearGradient id="paint8_linear_165_99" x1="42.7778" y1="44.2917" x2="49.1094" y2="42.5604" gradientUnits="userSpaceOnUse">
<stop stop-color="#38203B"/>
<stop offset="0.390625" stop-color="#622C3F"/>
<stop offset="1" stop-color="#D34D4B"/>
</linearGradient>
<linearGradient id="paint9_linear_165_99" x1="51.1235" y1="40.6236" x2="52.1523" y2="39.7752" gradientUnits="userSpaceOnUse">
<stop stop-color="#5B2637"/>
<stop offset="1" stop-color="#BF4648"/>
</linearGradient>
<linearGradient id="paint10_linear_165_99" x1="51.2871" y1="45.798" x2="52.0681" y2="45.1502" gradientUnits="userSpaceOnUse">
<stop stop-color="#492034"/>
<stop offset="1" stop-color="#BF4648"/>
</linearGradient>
<linearGradient id="paint11_linear_165_99" x1="48.0423" y1="46.1846" x2="49.2881" y2="45.4624" gradientUnits="userSpaceOnUse">
<stop stop-color="#4E2135"/>
<stop offset="1" stop-color="#D44D4B"/>
</linearGradient>
<linearGradient id="paint12_linear_165_99" x1="32.6436" y1="33.3179" x2="36.7099" y2="23.1245" gradientUnits="userSpaceOnUse">
<stop stop-color="#80A5C9"/>
<stop offset="0.729412" stop-color="#AD8EA5"/>
<stop offset="1" stop-color="#DB7781"/>
</linearGradient>
</defs>
</svg>

