<svg width="25" height="25" viewBox="0 0 25 25" fill="none" xmlns="http://www.w3.org/2000/svg">
<path d="M16.4485 21.1165L23.9815 22.8007C24.0419 22.8143 24.103 22.8209 24.1639 22.8209C24.3596 22.8209 24.5513 22.7522 24.7038 22.6231C24.9035 22.4543 25.0126 22.2017 24.9988 21.9405L24.562 13.7053L24.9989 4.78073C25.0188 4.37433 24.7433 4.01263 24.3462 3.92382L16.633 2.19932C16.6314 2.19907 16.6299 2.19907 16.6284 2.19873C16.5144 2.1739 16.3937 2.1718 16.2724 2.19839L8.55139 3.8835L1.01853 2.19932C0.761292 2.14183 0.492015 2.20892 0.291846 2.38055C0.0916771 2.55218 -0.0157307 2.80816 0.00194615 3.07113L0.562386 11.4439L0.00228285 19.165C-0.0249058 19.5396 0.200853 19.8864 0.554473 20.0128L8.26772 22.772C8.35921 22.8048 8.4545 22.8209 8.54928 22.8209C8.60804 22.8209 8.6662 22.8124 8.72369 22.8003L16.4485 21.1165ZM14.749 19.7759L12.3459 17.3729C12.2204 17.2475 12.0503 17.177 11.8729 17.177H9.71932L9.90451 14.4947L15.2309 13.3505L15.5765 19.5953L14.749 19.7759ZM9.62698 18.5149H11.5958L13.1958 20.115L9.46023 20.9303L9.62698 18.5149ZM5.22208 15.8448L2.01231 14.5686L2.15852 12.553L8.23379 14.4143L8.04297 17.177H5.6438V16.4664C5.6438 16.1923 5.47663 15.9459 5.22208 15.8448ZM5.6438 8.18874V4.94689L7.75382 5.41878L8.20416 12.6562L3.03672 11.0729L5.44792 8.66172C5.57335 8.53629 5.6438 8.36618 5.6438 8.18874ZM15.3932 7.68949L14.9741 7.58478L13.9214 6.53208V4.42307L15.5642 4.06456L15.3932 7.68949ZM12.7794 7.28217L14.1591 8.6618C14.2448 8.74749 14.3522 8.80827 14.4698 8.83764L15.3289 9.05246L15.2067 11.6453L9.88784 12.7878L9.42841 5.40371L12.5836 4.71499V6.8091C12.5836 6.98663 12.654 7.15666 12.7794 7.28217ZM16.8815 11.6338L16.9837 9.46618L19.7374 10.1546L21.2436 12.414L16.8815 11.6338ZM22.9443 12.5532L20.707 9.19732C20.6147 9.05877 20.4741 8.95978 20.3127 8.91938L17.0479 8.10321L17.239 4.04823L23.2943 5.40211L22.9443 12.5532ZM4.306 4.64781V7.91163L2.14648 10.0711L1.74505 4.07525L4.306 4.64781ZM1.91071 15.968L4.306 16.9202V17.846C4.306 18.2155 4.6055 18.5149 4.97486 18.5149H7.95063L7.79111 20.8255L1.71584 18.6522L1.91071 15.968ZM17.2506 19.5822L16.9049 13.3366L22.925 14.4134L23.2705 20.9283L17.2506 19.5822Z" fill="#909090"/>
</svg>

