<svg width="59" height="40" viewBox="0 0 59 40" fill="none" xmlns="http://www.w3.org/2000/svg">
<path fill-rule="evenodd" clip-rule="evenodd" d="M56.6049 5.43627C56.6049 6.38348 56.2829 7.29188 55.7099 7.96165C55.1369 8.63143 54.3597 9.0077 53.5493 9.0077H4.66041C3.85003 9.0077 3.07284 8.63143 2.49981 7.96165C1.92678 7.29188 1.60486 6.38348 1.60486 5.43627C1.60486 4.48907 1.92678 3.58067 2.49981 2.91089C3.07284 2.24112 3.85003 1.86485 4.66041 1.86485H53.5493C54.3597 1.86485 55.1369 2.24112 55.7099 2.91089C56.2829 3.58067 56.6049 4.48907 56.6049 5.43627ZM56.6049 19.8813C56.6049 20.8285 56.2829 21.7369 55.7099 22.4066C55.1369 23.0764 54.3597 23.4527 53.5493 23.4527H4.66041C3.85003 23.4527 3.07284 23.0764 2.49981 22.4066C1.92678 21.7369 1.60486 20.8285 1.60486 19.8813C1.60486 18.9341 1.92678 18.0256 2.49981 17.3559C3.07284 16.6861 3.85003 16.3098 4.66041 16.3098H53.5493C54.3597 16.3098 55.1369 16.6861 55.7099 17.3559C56.2829 18.0256 56.6049 18.9341 56.6049 19.8813ZM53.5495 38.3513C54.3598 38.3513 55.137 37.9751 55.7101 37.3053C56.2831 36.6355 56.605 35.7271 56.605 34.7799C56.605 33.8327 56.2831 32.9243 55.7101 32.2545C55.137 31.5847 54.3598 31.2085 53.5495 31.2085H4.66056C3.85018 31.2085 3.07299 31.5847 2.49996 32.2545C1.92693 32.9243 1.60501 33.8327 1.60501 34.7799C1.60501 35.7271 1.92693 36.6355 2.49996 37.3053C3.07299 37.9751 3.85018 38.3513 4.66056 38.3513H53.5495Z" fill="#DFDFDF" stroke="#111214" stroke-width="3"/>
</svg>

