<?xml version="1.0" standalone="no"?>
<!DOCTYPE svg PUBLIC "-//W3C//DTD SVG 20010904//EN"
 "http://www.w3.org/TR/2001/REC-SVG-20010904/DTD/svg10.dtd">
<svg version="1.0" xmlns="http://www.w3.org/2000/svg"
 width="512.000000pt" height="512.000000pt" viewBox="0 0 512.000000 512.000000"
 preserveAspectRatio="xMidYMid meet">

<g transform="translate(0.000000,512.000000) scale(0.100000,-0.100000)"
fill="#000000" stroke="none">
<path d="M2315 5109 c-800 -83 -1501 -518 -1927 -1196 -604 -961 -490 -2237
274 -3068 425 -462 951 -737 1583 -827 119 -17 512 -16 635 1 622 86 1148 360
1572 820 349 378 572 862 650 1406 17 118 17 512 0 630 -83 583 -321 1073
-715 1474 -404 411 -899 662 -1472 747 -123 18 -478 26 -600 13z m580 -314
c456 -70 884 -279 1217 -594 308 -292 535 -680 638 -1090 51 -207 64 -315 64
-551 1 -230 -11 -335 -61 -539 -71 -295 -218 -600 -404 -840 -427 -553 -1094
-881 -1793 -881 -491 0 -993 173 -1386 479 -543 421 -870 1091 -870 1781 0
660 295 1296 800 1725 339 287 779 475 1225 524 121 13 446 5 570 -14z"/>
<path d="M1345 3850 c-62 -24 -130 -89 -159 -150 -29 -63 -29 -177 0 -241 26
-55 79 -111 137 -141 l42 -23 1195 0 1195 0 42 23 c58 30 111 86 137 141 30
67 29 179 -2 243 -33 67 -94 123 -158 148 -54 20 -70 20 -1217 19 -1126 0
-1164 -1 -1212 -19z"/>
<path d="M1345 2830 c-63 -24 -131 -88 -159 -149 -29 -64 -29 -178 0 -242 29
-62 97 -125 161 -149 53 -20 79 -20 1213 -20 1143 0 1160 0 1214 20 65 25 130
86 160 150 29 62 29 178 0 240 -30 64 -95 125 -160 150 -54 20 -70 20 -1217
19 -1125 0 -1164 -1 -1212 -19z"/>
<path d="M1357 1816 c-162 -59 -240 -241 -169 -398 27 -60 96 -124 159 -148
53 -20 79 -20 1213 -20 1143 0 1160 0 1214 20 64 25 125 81 158 148 31 64 32
176 2 243 -26 55 -79 111 -137 141 l-42 23 -1180 2 c-976 2 -1187 0 -1218 -11z"/>
</g>
</svg>
